:SAMPLES-PER-SECOND 30
:FRAME-RANGE 1-2643
:FULLY-SPECIFIED
:DEGREES
1074
root  22.1462 37.043 2.12598 -175.443 20.7099 -168.251
RightUpLeg  -27.8951 10.4125 -6.8849
RightLeg  34.1235 -4.52677 -3.53967
RightFoot  -8.84979 -0.193835 6.13948
RightToes  5.38607e-012 1.2921e-014 -6.02303e-014
Spine  -1.98964 -6.88805 2.40799
Spine1  6.86341 -8.77595 5.53104
HEad  19.5424 42.4432 -8.45229
LeftShoulder1  1.58783 -3.00661 -18.87
LeftArm  13.2944 3.23534 -60.6172
LeftForeArm  38.8029 -55.8944 -13.2657
LeftHand  -0.122824 4.06271 9.5272
RightShoulder  0.689538 -1.11382 25.1413
RightArm  -4.5765 -15.4315 30.1553
RightForeArm  40.8853 19.3396 4.70448
RightHand  -0.142485 -4.55557 -18.354
LeftUpLeg  0.228704 -4.05489 -14.2203
LeftLeg  32.497 5.38833 4.0533
LeftFoot  -11.9583 0.14214 12.932
LeftToes  -4.79707e-012 -5.93756e-011 -7.55542e-012
1075
root  22.8518 37.3486 -0.106037 -174.945 19.2831 -167.636
RightUpLeg  -28.3075 10.6959 -4.20514
RightLeg  21.1709 2.8602 1.01142
RightFoot  -9.83513 -0.253634 14.1194
RightToes  5.38607e-012 1.2921e-014 -6.02303e-014
Spine  -2.68589 -7.40649 2.74187
Spine1  6.88092 -9.34127 6.279
HEad  18.3202 42.6447 -8.19079
LeftShoulder1  1.55581 -3.10828 -17.8997
LeftArm  13.6452 2.54399 -61.4149
LeftForeArm  39.6514 -58.266 -14.6321
LeftHand  -0.118799 4.12823 9.63561
RightShoulder  0.568129 -1.52982 25.6141
RightArm  -5.03413 -17.3906 27.8306
RightForeArm  38.6268 20.3434 4.14396
RightHand  -0.153293 -4.47021 -18.0041
LeftUpLeg  0.388168 0.938085 -10.6963
LeftLeg  36.7591 -1.11771 -0.518841
LeftFoot  -5.74475 -0.292781 6.69122
LeftToes  -4.79707e-012 -5.93756e-011 -7.55542e-012
1076
root  23.5798 37.1308 -2.24723 -175.615 18.4505 -167.146
RightUpLeg  -29.6746 9.61178 -0.352704
RightLeg  17.9826 9.38601 3.18234
RightFoot  -12.7029 0.0944633 15.1653
RightToes  5.38607e-012 1.2921e-014 -6.02303e-014
Spine  -2.18076 -7.62692 3.20208
Spine1  7.24522 -9.40165 6.13371
HEad  16.3438 42.6002 -7.8443
LeftShoulder1  1.58309 -3.30383 -17.57
LeftArm  13.4206 2.32205 -60.6834
LeftForeArm  37.9948 -58.8514 -15.1851
LeftHand  -0.133993 3.92905 9.58986
RightShoulder  0.599837 -1.43669 25.747
RightArm  -4.0093 -18.5057 26.2701
RightForeArm  37.6912 20.58 4.0729
RightHand  -0.125633 -4.65592 -18.1486
LeftUpLeg  -0.775246 4.58925 -6.95327
LeftLeg  45.9854 -5.74617 -5.92147
LeftFoot  -1.58234 0.383228 -4.37745
LeftToes  -4.79707e-012 -5.93756e-011 -7.55542e-012
1077
root  24.312 36.3778 -4.41955 -177.984 17.1467 -167.783
RightUpLeg  -29.6965 10.2065 1.90324
RightLeg  20.2311 7.22906 2.73494
RightFoot  -16.2878 0.608746 16.5609
RightToes  5.38607e-012 1.2921e-014 -6.02303e-014
Spine  -0.883402 -8.06445 2.75126
Spine1  7.40011 -9.40929 4.98807
HEad  15.3079 42.0902 -6.83559
LeftShoulder1  1.6211 -3.37527 -17.9093
LeftArm  13.0985 2.32095 -59.2296
LeftForeArm  34.0765 -55.9121 -13.7
LeftHand  -0.144287 3.83047 9.79117
RightShoulder  0.698547 -1.0659 24.8624
RightArm  -5.26679 -18.2051 26.6017
RightForeArm  42.6933 18.605 5.03063
RightHand  -0.0747541 -4.99041 -18.4762
LeftUpLeg  -1.86918 5.42862 -4.81183
LeftLeg  57.3023 -5.85862 -9.22647
LeftFoot  -1.92045 1.01129 -12.0994
LeftToes  -4.79707e-012 -5.93756e-011 -7.55542e-012
1078
root  24.8354 35.6453 -6.41948 179.039 14.5988 -168.312
RightUpLeg  -30.7495 13.866 0.916563
RightLeg  28.7448 4.8532 2.64705
RightFoot  -3.46104 -1.56817 22.1617
RightToes  5.38607e-012 1.2921e-014 -6.02303e-014
Spine  1.72334 -8.31255 3.78694
Spine1  6.79584 -9.18725 3.98868
HEad  16.5339 40.2179 -5.74098
LeftShoulder1  1.63888 -3.3163 -18.4334
LeftArm  14.247 2.18139 -58.7743
LeftForeArm  28.7602 -48.3537 -10.4658
LeftHand  -0.163266 3.64883 10.0988
RightShoulder  0.75376 -0.791293 23.618
RightArm  -5.49382 -18.1599 27.1603
RightForeArm  45.8191 16.5449 6.28236
RightHand  -0.0154044 -5.36631 -18.5743
LeftUpLeg  -3.77485 4.31381 -3.20626
LeftLeg  68.0678 -2.33479 -5.62479
LeftFoot  -6.85994 0.438056 -10.1275
LeftToes  -4.79707e-012 -5.93756e-011 -7.55542e-012
1079
root  25.3499 34.4743 -8.481 175.367 11.9914 -168.849
RightUpLeg  -32.1838 9.78294 2.04561
RightLeg  45.657 5.28247 5.45525
RightFoot  -8.92741 -0.32551 12.5116
RightToes  5.38607e-012 1.2921e-014 -6.02303e-014
Spine  4.06302 -7.67051 4.23019
Spine1  6.47092 -8.39089 3.32353
HEad  15.6766 38.2849 -8.1083
LeftShoulder1  1.83418 -3.86621 -19.3259
LeftArm  15.8124 1.18594 -60.1882
LeftForeArm  22.1461 -37.2984 -7.18251
LeftHand  -0.208691 3.31325 11.1184
RightShoulder  0.872569 -0.347204 23.1597
RightArm  -7.3976 -16.0112 27.3495
RightForeArm  50.3024 13.5654 7.87235
RightHand  0.0267474 -5.61475 -19.4868
LeftUpLeg  -6.6706 3.65314 -1.37252
LeftLeg  79.2877 0.0693158 2.23491
LeftFoot  -9.78261 0.146955 -6.49249
LeftToes  -4.79707e-012 -5.93756e-011 -7.55542e-012
1080
root  25.6869 33.6739 -10.3502 172.911 7.95129 -166.667
RightUpLeg  -29.2385 4.9897 4.32386
RightLeg  53.4837 5.2026 7.12292
RightFoot  -16.9032 0.416103 10.9038
RightToes  5.38607e-012 1.2921e-014 -6.02303e-014
Spine  5.14506 -7.7909 6.82385
Spine1  7.875 -8.69921 3.78728
HEad  14.3578 37.1554 -10.2166
LeftShoulder1  1.94513 -3.94936 -20.6531
LeftArm  21.0717 -0.0612017 -60.7714
LeftForeArm  11.5902 -25.2296 -4.79467
LeftHand  -0.219194 3.28722 11.5822
RightShoulder  1.02999 0.0604824 24.3763
RightArm  -13.5947 -9.64594 28.4779
RightForeArm  60.5313 7.28066 9.372
RightHand  0.17121 -6.40567 -20.7056
LeftUpLeg  -12.7415 0.924225 2.80512
LeftLeg  88.47 -0.343561 9.02078
LeftFoot  -12.7532 0.0656454 -0.881927
LeftToes  -4.79707e-012 -5.93756e-011 -7.55542e-012
1081
root  26.0137 33.2012 -12.1861 171.748 5.64838 -167.107
RightUpLeg  -27.0576 3.4602 3.92008
RightLeg  58.9185 4.34788 7.28999
RightFoot  -23.0268 0.825957 9.58213
RightToes  5.38607e-012 1.2921e-014 -6.02303e-014
Spine  4.697 -6.19764 6.78563
Spine1  8.53169 -7.34294 4.58284
HEad  16.5482 35.6612 -9.04416
LeftShoulder1  1.87937 -3.59637 -21.0991
LeftArm  17.6645 1.04504 -60.3805
LeftForeArm  13.7046 -16.1945 -8.62532
LeftHand  -0.15103 3.79056 10.063
RightShoulder  1.07594 0.0935151 25.4939
RightArm  -15.1882 -4.44843 31.9385
RightForeArm  65.2643 3.12139 9.20019
RightHand  0.228321 -6.71252 -20.8936
LeftUpLeg  -20.7938 0.886389 4.22027
LeftLeg  92.7148 -1.30502 12.3649
LeftFoot  -15.3125 0.175052 2.39672
LeftToes  -4.79707e-012 -5.93756e-011 -7.55542e-012
1082
root  26.1819 33.0882 -13.9077 170.889 4.56146 -167.548
RightUpLeg  -23.7027 2.97373 3.64533
RightLeg  61.1549 3.86275 7.06391
RightFoot  -27.2174 1.03144 8.71137
RightToes  5.38607e-012 1.2921e-014 -6.02303e-014
Spine  5.46269 -4.47353 8.03009
Spine1  7.34999 -5.17013 3.39397
HEad  18.2281 35.0155 -7.35428
LeftShoulder1  1.6909 -2.87441 -21.2362
LeftArm  16.2029 6.45529 -57.6319
LeftForeArm  14.1347 -14.6545 -9.77166
LeftHand  -0.156503 3.49104 8.82911
RightShoulder  1.18306 0.330327 26.4416
RightArm  -15.1395 -0.176695 37.3607
RightForeArm  67.6942 1.31002 9.20236
RightHand  0.227276 -6.68037 -21.2675
LeftUpLeg  -28.2526 3.70043 5.24607
LeftLeg  92.2979 -1.26127 12.9812
LeftFoot  -16.8722 0.291915 3.94312
LeftToes  -4.79707e-012 -5.93756e-011 -7.55542e-012
1083
root  26.2029 33.3991 -15.5658 170.774 2.98959 -167.947
RightUpLeg  -19.5622 2.49519 3.18608
RightLeg  60.0263 3.67199 6.37989
RightFoot  -30.0058 1.23264 8.73122
RightToes  5.38607e-012 1.2921e-014 -6.02303e-014
Spine  5.92568 -3.10419 8.56043
Spine1  6.14597 -3.59688 2.79843
HEad  17.699 34.774 -7.40171
LeftShoulder1  1.48229 -2.08211 -21.394
LeftArm  23.4432 12.609 -53.6504
LeftForeArm  8.75118 -17.5706 -8.13116
LeftHand  -0.173443 3.29738 9.00386
RightShoulder  1.41958 1.03772 26.6367
RightArm  -14.6804 3.12858 43.8695
RightForeArm  68.5947 2.14591 9.43475
RightHand  0.215687 -6.58038 -21.8394
LeftUpLeg  -34.5468 7.49643 4.67415
LeftLeg  86.8288 0.00901407 13.2382
LeftFoot  -17.2039 0.386763 5.52845
LeftToes  -4.79707e-012 -5.93756e-011 -7.55542e-012
1084
root  26.05 34.0671 -17.2243 171.025 -0.133942 -168.827
RightUpLeg  -14.5492 0.383816 1.67788
RightLeg  56.3756 3.71922 5.57943
RightFoot  -31.2771 1.41008 9.22087
RightToes  5.38607e-012 1.2921e-014 -6.02303e-014
Spine  5.6107 -1.78277 7.83443
Spine1  5.33043 -2.38306 3.00994
HEad  17.0731 33.3932 -7.54263
LeftShoulder1  1.36095 -1.77994 -20.5899
LeftArm  25.7999 16.6477 -50.9372
LeftForeArm  9.88313 -17.6628 -8.13548
LeftHand  -0.155625 3.52589 8.93523
RightShoulder  1.5598 1.45153 26.7651
RightArm  -12.3134 4.72626 49.05
RightForeArm  64.8728 6.12171 10.1864
RightHand  0.128325 -6.0996 -22.2724
LeftUpLeg  -38.2348 10.1323 1.37051
LeftLeg  76.4944 2.88673 15.1363
LeftFoot  -17.6884 0.444586 6.0935
LeftToes  -4.79707e-012 -5.93756e-011 -7.55542e-012
1085
root  25.746 34.9013 -18.9284 171.392 -4.40402 -170.27
RightUpLeg  -9.55394 -2.26817 -0.879798
RightLeg  52.6352 3.8932 5.0807
RightFoot  -30.3812 1.63558 10.9608
RightToes  5.38607e-012 1.2921e-014 -6.02303e-014
Spine  4.48714 -0.634278 6.25504
Spine1  5.17651 -1.42688 3.10376
HEad  17.1351 31.5001 -6.68997
LeftShoulder1  1.33344 -1.86102 -19.5688
LeftArm  26.3294 19.0089 -48.5186
LeftForeArm  10.1093 -17.1334 -8.60317
LeftHand  -0.149587 3.47255 8.3068
RightShoulder  1.68458 1.75824 27.276
RightArm  -2.70134 4.91439 52.7084
RightForeArm  53.5014 13.1637 8.95992
RightHand  0.0313696 -5.59644 -22.1821
LeftUpLeg  -38.2254 11.8515 -3.74336
LeftLeg  62.9862 6.8626 14.949
LeftFoot  -18.1006 0.485082 6.36339
LeftToes  -4.79707e-012 -5.93756e-011 -7.55542e-012
